<?xml version="1.0" encoding="UTF-8"?>
<svg width="72px" height="72px" viewBox="0 0 72 72" version="1.1" xmlns="http://www.w3.org/2000/svg" xmlns:xlink="http://www.w3.org/1999/xlink">
    <!-- Generator: Sketch 53.2 (72643) - https://sketchapp.com -->
    <title>clear</title>
    <desc>Created with Sketch.</desc>
    <g id="clear" stroke="none" stroke-width="1" fill="none" fill-rule="evenodd" stroke-linecap="round">
        <g id="Group-15" transform="translate(4.000000, 4.000000)" stroke="#FFF">
            <path d="M63.2835821,31.880597 C63.2835821,49.2236418 49.2236418,63.2835821 31.880597,63.2835821 C14.5385075,63.2835821 0.47761194,49.2236418 0.47761194,31.880597 C0.47761194,14.5375522 14.5385075,0.47761194 31.880597,0.47761194 C49.2236418,0.47761194 63.2835821,14.5375522 63.2835821,31.880597 Z" id="Stroke-1" stroke-width="3"></path>
            <path d="M17.7219821,20.5083701 L46.0386388,20.5083701" id="Stroke-3" stroke-width="3"></path>
            <path d="M42.7854328,20.5083701 L42.7854328,44.6010269 C42.7854328,46.3127881 41.3974925,47.7007284 39.6857313,47.7007284 L24.0735522,47.7007284 C22.3627463,47.7007284 20.9757612,46.3127881 20.9757612,44.6010269 L20.9757612,20.5083701" id="Stroke-5" stroke-width="3"></path>
            <path d="M25.5653254,20.5078925 L25.5653254,19.1600716 C25.5653254,17.4473552 26.9532657,16.0603701 28.6659821,16.0603701 L35.0936836,16.0603701 C36.8073552,16.0603701 38.1943403,17.4473552 38.1943403,19.1600716 L38.1943403,20.5078925" id="Stroke-7" stroke-width="3"></path>
            <path d="M31.880597,24.0956179 L31.880597,42.7492299" id="Stroke-9" stroke-width="2"></path>
            <path d="M25.5653254,25.6497672 L25.5653254,41.4348418" id="Stroke-11" stroke-width="2"></path>
            <path d="M38.1940537,25.6497672 L38.1940537,41.4348418" id="Stroke-13" stroke-width="2"></path>
        </g>
    </g>
</svg>