<?xml version="1.0" encoding="UTF-8"?>
<svg width="72px" height="72px" viewBox="0 0 72 72" version="1.1" xmlns="http://www.w3.org/2000/svg" xmlns:xlink="http://www.w3.org/1999/xlink">
    <!-- Generator: Sketch 53.2 (72643) - https://sketchapp.com -->
    <title>eraser</title>
    <desc>Created with Sketch.</desc>
    <g id="eraser" stroke="none" stroke-width="1" fill="none" fill-rule="evenodd">
        <g id="Group-13" transform="translate(4.000000, 4.000000)">
            <path d="M37.6454687,38.0848716 L39.3553194,36.3750209 L28.7905433,25.819797 L37.6454687,38.0848716 Z M31.8759164,0.477707463 C14.5395582,0.477707463 0.477707463,14.538603 0.477707463,31.8854687 C0.477707463,49.2323343 14.5395582,63.2836776 31.8759164,63.2836776 C49.2227821,63.2836776 63.2836776,49.2323343 63.2836776,31.8854687 C63.2836776,14.538603 49.2227821,0.477707463 31.8759164,0.477707463 Z M37.6454687,38.0848716 L39.3553194,36.3750209 L44.1218866,31.6084537 C45.2777075,30.4621851 45.2777075,28.5899463 44.1218866,27.4341254 L36.900394,20.2126328 C35.7445731,19.0663642 33.8828418,19.0663642 32.7260657,20.2126328 L29.058006,23.8806925 L37.6454687,38.0848716 Z" id="Stroke-1" stroke="#010202" stroke-width="3" stroke-linecap="round"></path>
            <path d="M16.3386269,45.4314985 L47.1933134,45.4314985" id="Stroke-3" stroke="#010202" stroke-width="3" stroke-linecap="round"></path>
            <path d="M22.7247761,45.4305433 L17.2035821,39.9093493 C16.0477612,38.7630806 16.0477612,36.8908418 17.2035821,35.7445731 L27.959403,24.9887522 L29.0579104,23.8806925 L32.7259701,20.2126328 C33.8827463,19.0663642 35.7444776,19.0663642 36.9002985,20.2126328 L44.121791,27.4341254 C45.2776119,28.5899463 45.2776119,30.4621851 44.121791,31.6084537 L39.3552239,36.3750209 L37.6453731,38.0848716 L30.3006567,45.4305433" id="Stroke-5" stroke="#010202" stroke-width="3" stroke-linecap="round"></path>
            <polyline id="Stroke-7" stroke="#010202" stroke-width="3" stroke-linecap="round" points="39.3554149 36.3750209 28.7906388 25.819797 27.959594 24.9887522"></polyline>
            <path d="M44.1221731,31.6082627 L39.355606,36.3748299 L28.7908299,25.819606 C28.8290388,25.1509493 28.9245612,24.501397 29.0573373,23.8805015 L32.725397,20.2124418 C33.8821731,19.0661731 35.7439045,19.0661731 36.8997254,20.2124418 L44.1221731,27.4339343 C45.277994,28.5897552 45.277994,30.461994 44.1221731,31.6082627" id="Fill-9" fill="#010202"></path>
            <path d="M44.1221731,31.6082627 L39.355606,36.3748299 L28.7908299,25.819606 C28.8290388,25.1509493 28.9245612,24.501397 29.0573373,23.8805015 L32.725397,20.2124418 C33.8821731,19.0661731 35.7439045,19.0661731 36.8997254,20.2124418 L44.1221731,27.4339343 C45.277994,28.5897552 45.277994,30.461994 44.1221731,31.6082627 Z" id="Stroke-11" stroke="#010202" stroke-width="3" stroke-linecap="round"></path>
        </g>
    </g>
</svg>