<?xml version="1.0" encoding="UTF-8"?>
<svg width="72px" height="72px" viewBox="0 0 72 72" version="1.1" xmlns="http://www.w3.org/2000/svg" xmlns:xlink="http://www.w3.org/1999/xlink">
    <!-- Generator: Sketch 53.2 (72643) - https://sketchapp.com -->
    <title>fill</title>
    <desc>Created with Sketch.</desc>
    <g id="fill" stroke="none" stroke-width="1" fill="none" fill-rule="evenodd" stroke-linecap="round">
        <g id="Group-23" transform="translate(4.000000, 4.000000)" stroke="#010202">
            <path d="M63.2836776,31.880597 C63.2836776,49.2236418 49.2237373,63.2835821 31.8806925,63.2835821 C14.538603,63.2835821 0.477707463,49.2236418 0.477707463,31.880597 C0.477707463,14.5375522 14.538603,0.47761194 31.8806925,0.47761194 C49.2237373,0.47761194 63.2836776,14.5375522 63.2836776,31.880597 Z" id="Stroke-1" stroke-width="3"></path>
            <path d="M14.9785791,38.6362269 C14.1991164,39.3039284 12.6124896,43.2576 12.6124896,44.563391 C12.6124896,45.8701373 13.6718328,46.9294806 14.9785791,46.9294806" id="Stroke-3" stroke-width="2"></path>
            <path d="M15.1167045,38.6362269 C15.8961672,39.3039284 17.482794,43.2576 17.482794,44.563391 C17.482794,45.8701373 16.4224955,46.9294806 15.1167045,46.9294806" id="Stroke-5" stroke-width="2"></path>
            <path d="M23.1652299,34.327403 L35.0061851,46.1683582 C36.0206328,47.182806 37.6645731,47.182806 38.6790209,46.1683582 L47.9265433,36.9208358 C48.9390806,35.9073433 48.9390806,34.2643582 47.9246328,33.2499104 L33.6545433,18.9798209" id="Stroke-7" stroke-width="3"></path>
            <path d="M33.2426507,18.5671642 L17.4824119,34.327403" id="Stroke-9" stroke-width="3"></path>
            <path d="M17.4823164,34.327403 L23.1649433,34.327403" id="Stroke-11" stroke-width="3"></path>
            <path d="M33.2426507,18.5671642 L41.149994,26.4754627" id="Stroke-13" stroke-width="3"></path>
            <path d="M23.1652299,34.327403 L28.2326925,39.3939104" id="Stroke-15" stroke-width="3"></path>
            <path d="M44.5159164,15.3274269 C45.243797,13.5488 44.3926925,11.5160836 42.6131104,10.788203 C40.8344836,10.0603224 38.8017672,10.9123821 38.0738866,12.6919642" id="Stroke-17" stroke-width="2"></path>
            <path d="M44.5159164,15.3274269 L40.9529313,24.0419343" id="Stroke-19" stroke-width="2"></path>
            <path d="M38.073791,12.6921552 L33.6988657,23.3858866" id="Stroke-21" stroke-width="2"></path>
        </g>
    </g>
</svg>