<?xml version="1.0" encoding="UTF-8"?>
<svg width="72px" height="72px" viewBox="0 0 72 72" version="1.1" xmlns="http://www.w3.org/2000/svg" xmlns:xlink="http://www.w3.org/1999/xlink">
    <!-- Generator: Sketch 53.2 (72643) - https://sketchapp.com -->
    <title>pencil</title>
    <desc>Created with Sketch.</desc>
    <g id="pencil" stroke="none" stroke-width="1" fill="none" fill-rule="evenodd" stroke-linecap="round">
        <g id="Group-23" transform="translate(4.000000, 4.000000)" stroke="#010202">
            <path d="M63.2835821,31.880597 C63.2835821,49.2236418 49.2236418,63.2835821 31.880597,63.2835821 C14.5385075,63.2835821 0.47761194,49.2236418 0.47761194,31.880597 C0.47761194,14.5375522 14.5385075,0.47761194 31.880597,0.47761194 C49.2236418,0.47761194 63.2835821,14.5375522 63.2835821,31.880597 Z" id="Stroke-1" stroke-width="3"></path>
            <path d="M19.8572896,36.7439284 L39.3123343,17.2898388 C40.394603,16.2075701 42.1503045,16.2075701 43.2325731,17.2898388 L47.6590806,21.7182567 C48.7423045,22.8005254 48.7423045,24.5552716 47.6590806,25.6375403 L28.2059463,45.0925851" id="Stroke-3" stroke-width="3"></path>
            <path d="M36.5541254,20.0485254 L44.9008716,28.3962269" id="Stroke-5" stroke-width="3"></path>
            <path d="M17.9076776,47.0438209 C17.2724537,46.408597 17.7023045,45.6902687 17.9067224,44.744597" id="Stroke-7" stroke-width="3"></path>
            <path d="M17.9067224,44.7448836 L19.8572896,36.7439284" id="Stroke-9" stroke-width="3"></path>
            <path d="M17.9076776,47.0438209 C18.5419463,47.6790448 19.2612299,47.2482388 20.2059463,47.0438209" id="Stroke-11" stroke-width="3"></path>
            <path d="M20.2061373,47.0438209 L28.2061373,45.0932537" id="Stroke-13" stroke-width="3"></path>
            <path d="M17.9067224,44.7448836 L20.2059463,47.0441075" id="Stroke-15" stroke-width="3"></path>
            <path d="M19.1464119,46.9538388 C18.8799045,47.2213015 18.4471881,47.2213015 18.1778149,46.9538388 C17.9113075,46.6863761 17.9113075,46.2527045 18.1778149,45.9852418 C18.4471881,45.7177791 18.8799045,45.7177791 19.1473672,45.9852418 C19.4138746,46.2527045 19.4138746,46.6863761 19.1464119,46.9538388 Z" id="Stroke-17" stroke-width="3"></path>
            <path d="M39.1567284,22.6506507 L28.8116537,32.9947701" id="Stroke-19" stroke-width="2"></path>
            <path d="M42.0597493,25.7355463 L28.9922866,38.8020537" id="Stroke-21" stroke-width="2"></path>
        </g>
    </g>
</svg>