<?xml version="1.0" encoding="UTF-8"?>
<svg width="72px" height="72px" viewBox="0 0 72 72" version="1.1" xmlns="http://www.w3.org/2000/svg" xmlns:xlink="http://www.w3.org/1999/xlink">
    <!-- Generator: Sketch 53.2 (72643) - https://sketchapp.com -->
    <title>save</title>
    <desc>Created with Sketch.</desc>
    <g id="save" stroke="none" stroke-width="1" fill="none" fill-rule="evenodd">
        <g id="Group-21" transform="translate(4.000000, 4.000000)" stroke="#FFF" stroke-width="3">
            <path d="M63.2836776,31.880597 C63.2836776,49.2236418 49.2237373,63.2835821 31.8806925,63.2835821 C14.538603,63.2835821 0.477707463,49.2236418 0.477707463,31.880597 C0.477707463,14.5375522 14.538603,0.47761194 31.8806925,0.47761194 C49.2237373,0.47761194 63.2836776,14.5375522 63.2836776,31.880597 Z" id="Stroke-1" stroke-linecap="round"></path>
            <path d="M43.0458269,26.4197731 C46.6737672,26.8018627 49.5021851,29.870997 49.5021851,33.6011463 C49.5021851,37.589206 46.2687522,40.8226388 42.2797373,40.8226388" id="Stroke-3" stroke-linecap="round"></path>
            <path d="M21.4777313,40.8223522 C17.4896716,40.8223522 14.2562388,37.5889194 14.2562388,33.6008597 C14.2562388,30.2556657 16.5315821,27.4425313 19.6188657,26.621994" id="Stroke-5"></path>
            <path d="M19.6166687,26.6208478 C20.117206,23.1218627 23.1280716,20.4319522 26.764609,20.4319522 C27.9099224,20.4319522 28.9912358,20.6975045 29.952191,21.1712955" id="Stroke-7" stroke-linecap="round"></path>
            <path d="M29.9328955,21.2038687 C31.2300896,19.2829134 33.4280597,18.0201075 35.921194,18.0201075 C39.9082985,18.0201075 43.1417313,21.2535403 43.1417313,25.2416 C43.1417313,25.642794 43.1092537,26.0373015 43.0471642,26.4203463" id="Stroke-9" stroke-linecap="round"></path>
            <path d="M21.4777313,40.8223522 L26.7066269,40.8223522" id="Stroke-11" stroke-linecap="round"></path>
            <path d="M37.9301254,40.8223522 L43.1418269,40.8223522" id="Stroke-13" stroke-linecap="round"></path>
            <path d="M32.3759761,47.6413134 L32.3759761,30.8389254" id="Stroke-15" stroke-linecap="round"></path>
            <path d="M32.3759761,30.8386388 L27.9972299,35.2173851" id="Stroke-17" stroke-linecap="round"></path>
            <path d="M32.3759761,30.8386388 L36.7547224,35.2173851" id="Stroke-19" stroke-linecap="round"></path>
        </g>
    </g>
</svg>