<?xml version="1.0" encoding="UTF-8"?>
<svg width="72px" height="72px" viewBox="0 0 72 72" version="1.1" xmlns="http://www.w3.org/2000/svg" xmlns:xlink="http://www.w3.org/1999/xlink">
    <!-- Generator: Sketch 53.2 (72643) - https://sketchapp.com -->
    <title>undo</title>
    <desc>Created with Sketch.</desc>
    <g id="undo" stroke="none" stroke-width="1" fill="none" fill-rule="evenodd" stroke-linecap="round">
        <g id="Group-13" transform="translate(4.000000, 4.000000)" stroke="#010202" stroke-width="3">
            <path d="M63.2835821,31.880597 C63.2835821,49.2236418 49.2236418,63.2835821 31.880597,63.2835821 C14.5385075,63.2835821 0.47761194,49.2236418 0.47761194,31.880597 C0.47761194,14.5375522 14.5385075,0.47761194 31.880597,0.47761194 C49.2236418,0.47761194 63.2835821,14.5375522 63.2835821,31.880597 Z" id="Stroke-1"></path>
            <path d="M35.9542448,24.4776119 C40.7026627,24.4776119 44.5512597,28.326209 44.5512597,33.0746269 C44.5512597,37.8230448 40.7026627,41.6716418 35.9542448,41.6716418" id="Stroke-3"></path>
            <path d="M35.9542448,24.4776119 L19.2091701,24.4776119" id="Stroke-5"></path>
            <path d="M35.9542448,41.6716418 L27.5817075,41.6716418" id="Stroke-7"></path>
            <path d="M19.2089791,24.4776119 L23.0298746,20.6567164" id="Stroke-9"></path>
            <path d="M19.2089791,24.7164179 L23.0298746,28.5373134" id="Stroke-11"></path>
        </g>
    </g>
</svg>