<?xml version="1.0" encoding="UTF-8"?>
<svg width="716px" height="924px" viewBox="0 0 716 924" version="1.1" xmlns="http://www.w3.org/2000/svg" xmlns:xlink="http://www.w3.org/1999/xlink">
    <!-- Generator: Sketch 53.2 (72643) - https://sketchapp.com -->
    <title>Group 4</title>
    <desc>Created with Sketch.</desc>
    <g id="Page-1" stroke="none" stroke-width="1" fill="none" fill-rule="evenodd">
        <g id="014_TODO_List" transform="translate(-154.000000, -50.000000)">
            <g id="Group-4" transform="translate(159.069400, 55.340499)">
                <path d="M280.4306,185.040355 C303.830104,181.08124 328.080423,179 352.9306,179 C377.780777,179 402.031096,181.08124 425.4306,185.040355 L425.4306,74.5 C425.4306,33.3547861 458.785386,-1.62972003e-13 499.9306,-1.70530257e-13 C541.075814,-1.7808851e-13 574.4306,33.3547861 574.4306,74.5 L574.4306,242.326605 C654.589493,294.753939 705.8612,375.024893 705.8612,465 L704.972427,465 C705.560811,465.019787 705.8612,465.03999 705.8612,465.06062 L705.8612,813.319002 C705.8612,868.547477 661.089675,913.319002 605.8612,913.319002 L100,913.319002 C44.771525,913.319002 -1.36935796e-10,868.547477 -1.36935796e-10,813.319002 L-1.37049483e-10,464.06062 C-1.37049483e-10,464.06062 0.000471693853,464.06062 0.00141431064,464.06062 C0.35735083,374.466311 51.5507768,294.571416 131.4306,242.326605 L131.4306,74.5 C131.4306,33.3547861 164.785386,-1.62972003e-13 205.9306,-1.70530257e-13 C247.075814,-1.7808851e-13 280.4306,33.3547861 280.4306,74.5 L280.4306,185.040355 Z" id="Combined-Shape" stroke="#B25E77" stroke-width="10" fill="#FFFFFF"></path>
                <circle id="Oval" fill="#000000" cx="237.773745" cy="280.903764" r="24.3431439"></circle>
                <circle id="Oval-Copy" fill="#000000" cx="468.087457" cy="280.903764" r="24.3431439"></circle>
                <circle id="Oval-Copy-2" fill="#FFB798" cx="547.636127" cy="328.810911" r="53.8519449"></circle>
                <circle id="Oval-Copy-3" fill="#FFB798" cx="158.282544" cy="328.810911" r="53.8519449"></circle>
                <path d="M354.267338,309.602245 L366.299172,320.413459 C367.120784,321.151719 367.188354,322.416244 366.450094,323.237856 C366.070774,323.660003 365.529966,323.901118 364.962434,323.901118 L340.898766,323.901118 C339.794196,323.901118 338.898766,323.005688 338.898766,321.901118 C338.898766,321.333587 339.139881,320.792779 339.562028,320.413459 L351.593862,309.602245 C352.354109,308.919125 353.507091,308.919125 354.267338,309.602245 Z" id="Triangle-Copy-9" fill="#000000" transform="translate(352.930600, 316.151118) rotate(-180.000000) translate(-352.930600, -316.151118) "></path>
                <path d="M352.918669,321.679987 L337.544147,337.05451" id="Line-8" stroke="#000000" stroke-width="5" stroke-linecap="round"></path>
                <path d="M368.803729,321.553501 L353.429206,336.928024" id="Line-8-Copy" stroke="#000000" stroke-width="5" stroke-linecap="round" transform="translate(360.873130, 329.213002) rotate(-270.000000) translate(-360.873130, -329.213002) "></path>
            </g>
        </g>
    </g>
</svg>