<?xml version="1.0" encoding="UTF-8"?>
<svg width="43px" height="43px" viewBox="0 0 43 43" version="1.1" xmlns="http://www.w3.org/2000/svg" xmlns:xlink="http://www.w3.org/1999/xlink">
    <!-- Generator: Sketch 53.2 (72643) - https://sketchapp.com -->
    <title>Group Copy 2</title>
    <desc>Created with Sketch.</desc>
    <g id="Page-1" stroke="none" stroke-width="1" fill="none" fill-rule="evenodd">
        <g id="014_TODO_List" transform="translate(-292.000000, -506.000000)">
            <g id="Group-Copy-2" transform="translate(313.560779, 528.401118) rotate(-315.000000) translate(-313.560779, -528.401118) translate(299.060779, 501.901118)">
                <path d="M10.5716897,11.917616 C12.7581214,11.917616 14.5305745,8.14531647 14.5305745,5.95888478 C14.5305745,3.77245309 12.7581214,2 10.5716897,2 C8.38525799,2 6.6128049,3.77245309 6.6128049,5.95888478 C6.6128049,8.14531647 8.38525799,11.917616 10.5716897,11.917616 Z" id="Oval-Copy-5" fill="#32A18E" transform="translate(10.571690, 6.958808) rotate(-30.000000) translate(-10.571690, -6.958808) "></path>
                <path d="M17.9283103,11.917616 C20.114742,11.917616 21.8871951,8.14531647 21.8871951,5.95888478 C21.8871951,3.77245309 20.114742,2 17.9283103,2 C15.7418786,2 13.9694255,3.77245309 13.9694255,5.95888478 C13.9694255,8.14531647 15.7418786,11.917616 17.9283103,11.917616 Z" id="Oval-Copy-6" fill="#32A18E" transform="translate(17.928310, 6.958808) scale(-1, 1) rotate(-30.000000) translate(-17.928310, -6.958808) "></path>
                <path d="M0.00539063162,22.3719992 C0.00180463128,22.256652 0,22.1409146 0,22.0248074 C0,15.121248 6.37994232,9.52480741 14.25,9.52480741 C22.1200577,9.52480741 28.5,15.121248 28.5,22.0248074 C28.5,22.1409146 28.4981954,22.256652 28.4946094,22.3719992 C28.4981935,22.4225265 28.5,22.4734626 28.5,22.5248074 C28.5,26.82426 25.7555414,35.4168402 20.2666242,48.3025479 L20.2255987,48.3025479 C19.8759342,50.9253847 17.3339264,52.9606736 14.25,52.9606736 C11.1660736,52.9606736 8.62406577,50.9253847 8.27440128,48.3025479 L8.23337582,48.3025479 C2.74445861,35.4168402 8.01655944e-14,26.82426 7.99360578e-14,22.5248074 C7.99360578e-14,22.4734626 0.00180646527,22.4225265 0.00539063162,22.3719992 Z" id="Combined-Shape" fill="#EE9C5A"></path>
            </g>
        </g>
    </g>
</svg>